<?xml version="1.0" standalone="no"?>
<!DOCTYPE svg PUBLIC "-//W3C//DTD SVG 20010904//EN"
 "http://www.w3.org/TR/2001/REC-SVG-20010904/DTD/svg10.dtd">
<svg version="1.0" xmlns="http://www.w3.org/2000/svg"
 width="900.000000pt" height="891.000000pt" viewBox="0 0 900.000000 891.000000"
 preserveAspectRatio="xMidYMid meet">
<metadata>
Created by potrace 1.10, written by Peter Selinger 2001-2011
</metadata>
<g transform="translate(0.000000,891.000000) scale(0.100000,-0.100000)"
fill="#999999" stroke="none">
<path d="M5788 5425 c-38 -20 -52 -23 -73 -15 -37 14 -77 12 -118 -5 -20 -8
-66 -15 -104 -15 -86 0 -138 -25 -211 -101 -58 -62 -59 -62 -112 -20 l-25 20
43 60 c23 34 38 61 33 61 -20 0 -67 -25 -99 -52 -30 -25 -39 -28 -110 -27 -42
0 -89 -5 -105 -12 -21 -9 -33 -10 -52 -1 -14 7 -63 12 -109 12 -57 0 -88 5
-102 15 -27 20 -147 20 -164 0 -16 -19 -44 -19 -59 -1 -16 19 -81 27 -137 17
-42 -8 -52 -7 -70 10 -25 23 -101 26 -130 4 -25 -19 -58 -19 -74 0 -15 18
-130 21 -148 3 -9 -9 -22 -8 -54 3 -55 18 -118 18 -152 -1 -18 -9 -32 -11 -40
-5 -68 50 -59 48 -129 25 l-65 -22 -31 23 -30 22 -63 -18 c-35 -10 -67 -22
-72 -26 -5 -4 -26 4 -48 19 l-40 26 -52 -18 c-28 -10 -59 -25 -68 -33 -16 -14
-20 -14 -42 1 -41 26 -97 21 -146 -15 -38 -27 -44 -29 -52 -15 -19 34 -167 8
-193 -34 -4 -6 -25 -8 -53 -5 -71 9 -124 -5 -140 -38 -14 -29 -31 -33 -63 -17
-24 13 -91 -5 -115 -32 -10 -10 -30 -18 -45 -18 -53 0 -139 -54 -139 -88 0
-11 -8 -13 -31 -8 -64 12 -119 -40 -100 -96 6 -17 11 -41 11 -52 l0 -21 -365
3 c-403 5 -383 7 -525 -61 -85 -41 -144 -85 -200 -150 -81 -94 -154 -162 -200
-186 -44 -22 -190 -136 -278 -216 -24 -22 -64 -52 -88 -66 -90 -52 -112 -163
-53 -268 30 -53 184 -221 203 -221 4 0 25 -13 45 -28 45 -35 83 -52 141 -62
25 -5 77 -18 115 -30 72 -21 170 -46 240 -60 22 -4 65 -18 95 -30 30 -12 69
-25 85 -30 17 -5 44 -13 60 -18 69 -23 134 -42 205 -57 41 -9 98 -23 125 -32
47 -14 145 -14 400 -1 22 1 74 -6 115 -16 41 -10 100 -22 131 -26 105 -14 154
-38 229 -109 43 -41 119 -90 180 -116 25 -10 52 -24 60 -30 8 -6 49 -28 90
-48 41 -21 82 -41 90 -46 38 -21 132 -58 204 -81 22 -7 83 -19 135 -27 205
-30 225 -35 304 -73 25 -12 29 -11 52 10 22 21 28 22 77 12 52 -10 88 -3 88
18 0 6 10 20 22 32 42 42 27 76 -75 180 -82 84 -145 128 -182 128 -8 0 -26 15
-42 34 -15 18 -41 40 -58 49 -41 21 -87 66 -82 80 5 15 391 25 562 15 66 -4
190 -7 275 -8 111 0 160 -3 171 -12 9 -7 40 -53 69 -101 52 -86 53 -87 92 -87
25 0 50 -8 65 -20 29 -23 99 -44 119 -36 8 3 14 17 14 31 0 32 29 34 56 4 10
-12 36 -32 57 -46 37 -24 39 -24 92 -8 29 8 55 21 58 28 3 9 16 5 48 -12 50
-27 131 -51 171 -51 15 0 42 7 61 16 33 16 36 15 93 -12 81 -38 156 -44 195
-15 l30 22 57 -22 c42 -16 90 -24 182 -29 69 -4 143 -12 165 -18 25 -6 164 -9
360 -8 310 2 324 3 440 29 66 15 131 34 145 41 14 8 41 17 60 21 19 4 53 17
75 30 22 12 72 30 110 40 102 27 200 105 132 105 -12 0 -33 8 -47 17 -32 23
-131 73 -144 73 -5 0 -17 6 -25 13 -9 7 -36 22 -61 32 -47 20 -119 70 -133 92
-4 7 -15 13 -23 13 -9 0 -35 14 -59 30 -24 17 -48 30 -54 30 -6 0 -25 6 -43
14 -18 8 -53 22 -78 31 -25 9 -58 23 -75 30 -16 8 -39 15 -50 17 -12 2 -21 12
-23 25 -3 19 3 23 43 29 27 4 70 1 103 -6 31 -7 71 -14 87 -17 47 -7 93 -32
195 -109 52 -39 102 -73 110 -77 8 -4 29 -16 45 -27 17 -11 39 -24 50 -30 11
-6 34 -19 50 -30 17 -11 39 -24 50 -30 11 -6 34 -19 50 -29 101 -65 248 -114
380 -127 159 -16 397 12 545 64 30 11 82 29 115 41 33 11 87 28 120 38 33 9
69 22 80 30 11 7 27 13 36 13 9 0 22 7 29 16 17 20 128 104 138 104 16 0 115
95 139 133 19 31 26 56 27 101 1 36 7 61 14 64 7 2 12 15 12 28 0 17 -8 27
-26 35 -25 9 -26 11 -10 28 9 10 14 25 11 34 -4 8 -2 18 4 22 6 3 11 12 11 19
0 14 -46 25 -135 32 -96 8 -86 41 15 46 50 2 65 7 65 18 0 11 -13 15 -55 16
-86 1 -87 1 -69 20 9 8 37 21 63 27 26 7 47 17 47 22 0 6 -31 15 -68 22 -131
22 -147 40 -60 69 28 9 56 19 61 22 14 8 -23 20 -61 21 -22 1 -33 6 -33 16 0
10 15 15 58 17 31 2 57 8 57 13 0 6 -26 11 -57 13 -67 3 -77 21 -24 40 43 16
62 37 48 55 -6 6 -15 38 -21 70 -6 31 -15 66 -21 76 -5 11 -10 27 -10 36 0 22
-113 254 -151 310 -16 24 -29 47 -29 52 0 15 -75 83 -91 83 -8 0 -20 5 -26 11
-6 6 -26 14 -44 19 -43 11 -100 32 -119 45 -24 16 -100 35 -175 44 -38 5 -83
14 -98 20 -40 16 -211 13 -282 -4 -33 -8 -76 -14 -95 -15 -37 0 -148 -35 -165
-51 -5 -5 -15 -9 -23 -9 -16 0 -154 -89 -165 -106 -4 -7 -47 -53 -95 -102 -81
-83 -99 -109 -139 -202 -8 -19 -19 -42 -24 -50 -5 -8 -14 -25 -19 -38 -5 -13
-21 -46 -34 -75 -13 -29 -30 -68 -37 -87 -32 -84 -137 -157 -140 -97 -3 47 4
63 59 136 32 42 65 93 75 114 44 94 69 160 94 241 15 49 26 66 68 100 27 23
87 79 132 125 66 67 80 87 73 101 -11 21 -86 49 -156 59 -29 4 -58 12 -65 18
-8 6 -47 19 -86 28 -46 11 -73 23 -73 31 0 8 -10 16 -22 18 -13 2 -47 9 -76
15 -30 6 -109 11 -177 11 -89 0 -130 4 -151 15 -37 19 -100 19 -220 -1 -89
-16 -99 -16 -124 0 -44 26 -154 21 -212 -9z"/>
</g>
</svg>
